<?xml version="1.0" encoding="utf-8"?>
<!-- Generator: Adobe Illustrator 19.1.0, SVG Export Plug-In . SVG Version: 6.00 Build 0)  -->
<svg version="1.0" id="Layer_1" xmlns="http://www.w3.org/2000/svg" xmlns:xlink="http://www.w3.org/1999/xlink" x="0px" y="0px"
	 viewBox="0 0 454.3 56.4" style="enable-background:new 0 0 454.3 56.4;" xml:space="preserve">
<rect x="73.2" y="0" style="fill:#B5CA8D;" width="334.7" height="56.4"/>
<g>
	<rect x="0" y="2.3" style="fill:none;" width="454.3" height="49.5"/>
	<path style="fill:#2E3236;" d="M7.4,25.1l23-15.6v4.9L11.9,26.9v0.2l18.6,12.5v4.9l-23-15.6V25.1z"/>
	<path style="fill:#2E3236;" d="M47.7,56.1h-4.6L63.4,2.4H68L47.7,56.1z"/>
	<path style="fill:#2E3236;" d="M77.4,26c0-3.3,0.4-6.2,1.3-8.8c0.9-2.6,2.1-4.8,3.7-6.6c1.6-1.8,3.5-3.2,5.7-4.1
		c2.2-1,4.6-1.5,7.3-1.5c1.4,0,2.6,0.1,3.7,0.4c1.1,0.3,2.1,0.7,3.1,1.1c0.9,0.5,1.7,1,2.5,1.6c0.7,0.6,1.4,1.2,1.9,1.8l-2.9,3.3
		c-1-1.1-2.1-2-3.4-2.7c-1.3-0.7-2.9-1-4.9-1c-1.9,0-3.6,0.4-5.2,1.1c-1.5,0.8-2.9,1.9-4,3.3c-1.1,1.4-2,3.1-2.6,5.2
		c-0.6,2-0.9,4.3-0.9,6.8c0,2.6,0.3,4.8,0.8,6.9c0.6,2,1.4,3.8,2.4,5.2c1,1.4,2.4,2.6,3.9,3.3c1.6,0.8,3.3,1.2,5.3,1.2
		c1.4,0,2.8-0.2,4-0.6c1.2-0.4,2.2-1,3-1.8V29.5h-8.1v-4.3H107v17c-1.3,1.3-3,2.4-5.1,3.3c-2.1,0.9-4.4,1.4-7,1.4
		c-2.6,0-4.9-0.5-7-1.4c-2.1-0.9-4-2.3-5.6-4.1c-1.6-1.8-2.8-4-3.6-6.6C77.8,32.2,77.4,29.3,77.4,26z"/>
	<path style="fill:#2E3236;" d="M115.4,31.3c0-2.5,0.4-4.7,1.3-6.6c0.9-2,2-3.6,3.4-5c1.4-1.4,3-2.4,4.9-3.1
		c1.8-0.7,3.7-1.1,5.6-1.1c2.1,0,4.1,0.3,5.7,1c1.7,0.7,3.1,1.6,4.3,2.9c1.2,1.2,2.1,2.7,2.7,4.4c0.6,1.7,0.9,3.6,0.9,5.7
		c0,1.1-0.1,2-0.2,2.8h-23.5c0.2,3.3,1.3,5.8,3.4,7.7c2.1,1.9,4.8,2.8,8.1,2.8c1.8,0,3.4-0.2,4.8-0.7s2.9-1.2,4.3-2l1.8,3.3
		c-1.5,0.9-3.2,1.8-5.1,2.5c-1.9,0.7-4.1,1-6.5,1c-2.2,0-4.3-0.4-6.3-1.1c-2-0.7-3.7-1.7-5.1-3.1c-1.5-1.3-2.6-3-3.5-4.9
		C115.8,36,115.4,33.8,115.4,31.3z M139.6,29c0-3.1-0.8-5.4-2.3-7.1c-1.6-1.6-3.7-2.4-6.5-2.4c-1.2,0-2.4,0.2-3.5,0.6
		c-1.1,0.4-2.2,1-3.1,1.9c-0.9,0.8-1.7,1.8-2.3,3c-0.6,1.2-1,2.5-1.2,4H139.6z"/>
	<path style="fill:#2E3236;" d="M152.4,31.3c0-2.5,0.4-4.7,1.3-6.6c0.9-2,2-3.6,3.4-5c1.4-1.4,3-2.4,4.9-3.1
		c1.8-0.7,3.7-1.1,5.6-1.1c2.1,0,4.1,0.3,5.7,1c1.7,0.7,3.1,1.6,4.3,2.9c1.2,1.2,2.1,2.7,2.7,4.4c0.6,1.7,0.9,3.6,0.9,5.7
		c0,1.1-0.1,2-0.2,2.8h-23.5c0.2,3.3,1.3,5.8,3.4,7.7c2.1,1.9,4.8,2.8,8.1,2.8c1.8,0,3.4-0.2,4.8-0.7c1.5-0.5,2.9-1.2,4.3-2l1.8,3.3
		c-1.5,0.9-3.2,1.8-5.1,2.5s-4.1,1-6.5,1c-2.2,0-4.3-0.4-6.3-1.1c-2-0.7-3.7-1.7-5.1-3.1c-1.5-1.3-2.6-3-3.5-4.9
		C152.9,36,152.4,33.8,152.4,31.3z M176.7,29c0-3.1-0.8-5.4-2.3-7.1c-1.6-1.6-3.7-2.4-6.5-2.4c-1.2,0-2.4,0.2-3.5,0.6
		c-1.1,0.4-2.2,1-3.1,1.9c-0.9,0.8-1.7,1.8-2.3,3c-0.6,1.2-1,2.5-1.2,4H176.7z"/>
	<path style="fill:#2E3236;" d="M191.8,2.3h5.1V32L197,32l16.2-15.7h5.8l-12,11.9l13.6,18.1H215l-11.1-14.8l-7.1,6.8v8h-5.1V2.3z"/>
	<path style="fill:#2E3236;" d="M228,2.3h5.1v12l-0.1,5.8c1.4-1.4,3.1-2.5,4.8-3.3s3.6-1.2,5.3-1.2c2,0,3.8,0.4,5.4,1.1
		c1.6,0.7,2.9,1.8,3.9,3.1c1,1.3,1.8,2.9,2.4,4.8c0.5,1.9,0.8,4,0.8,6.3c0,2.6-0.4,4.8-1.1,6.9c-0.7,2-1.7,3.7-3,5.1
		c-1.3,1.4-2.7,2.5-4.4,3.2S243.8,47,242,47c-1.4,0-3-0.4-4.7-1.1c-1.7-0.7-3.2-1.7-4.7-3h-0.2l-0.4,3.3H228V2.3z M233.1,39.2
		c1.4,1.3,2.9,2.2,4.4,2.7c1.5,0.5,2.7,0.8,3.8,0.8c1.3,0,2.5-0.3,3.6-0.8s2.1-1.3,2.9-2.3s1.5-2.3,1.9-3.7c0.5-1.5,0.7-3.1,0.7-5
		c0-1.6-0.2-3.1-0.5-4.5c-0.3-1.4-0.8-2.5-1.5-3.5c-0.7-1-1.6-1.7-2.6-2.3c-1.1-0.5-2.3-0.8-3.8-0.8c-1.3,0-2.7,0.4-4.2,1.1
		c-1.5,0.7-3,1.9-4.6,3.4V39.2z"/>
	<path style="fill:#2E3236;" d="M263,31.3c0-2.5,0.4-4.7,1.2-6.7c0.8-2,1.9-3.6,3.2-5c1.4-1.4,2.9-2.4,4.7-3.1c1.8-0.7,3.7-1,5.7-1
		c2,0,3.9,0.4,5.6,1c1.8,0.7,3.4,1.7,4.7,3.1c1.4,1.4,2.4,3,3.2,5c0.8,2,1.2,4.2,1.2,6.7c0,2.5-0.4,4.7-1.2,6.6s-1.9,3.6-3.2,4.9
		c-1.4,1.3-2.9,2.4-4.7,3.1s-3.7,1-5.6,1c-2,0-3.9-0.4-5.7-1c-1.8-0.7-3.4-1.7-4.7-3.1c-1.4-1.3-2.4-3-3.2-4.9S263,33.8,263,31.3z
		 M268.3,31.3c0,1.7,0.2,3.3,0.7,4.7c0.5,1.4,1.1,2.6,1.9,3.6c0.8,1,1.9,1.8,3,2.3c1.2,0.6,2.5,0.8,3.9,0.8c1.4,0,2.7-0.3,3.9-0.8
		c1.2-0.6,2.2-1.3,3-2.3c0.8-1,1.5-2.2,1.9-3.6c0.5-1.4,0.7-3,0.7-4.7c0-1.7-0.2-3.3-0.7-4.7c-0.5-1.4-1.1-2.6-1.9-3.7
		c-0.8-1-1.9-1.8-3-2.4c-1.2-0.6-2.5-0.8-3.9-0.8c-1.4,0-2.7,0.3-3.9,0.8c-1.2,0.6-2.2,1.3-3,2.4s-1.5,2.3-1.9,3.7
		C268.5,28,268.3,29.6,268.3,31.3z"/>
	<path style="fill:#2E3236;" d="M300.1,31.3c0-2.5,0.4-4.7,1.2-6.7c0.8-2,1.9-3.6,3.2-5c1.4-1.4,2.9-2.4,4.7-3.1
		c1.8-0.7,3.7-1,5.7-1c2,0,3.9,0.4,5.6,1c1.8,0.7,3.4,1.7,4.7,3.1c1.4,1.4,2.4,3,3.2,5c0.8,2,1.2,4.2,1.2,6.7c0,2.5-0.4,4.7-1.2,6.6
		s-1.9,3.6-3.2,4.9c-1.4,1.3-2.9,2.4-4.7,3.1s-3.7,1-5.6,1c-2,0-3.9-0.4-5.7-1c-1.8-0.7-3.4-1.7-4.7-3.1c-1.4-1.3-2.4-3-3.2-4.9
		S300.1,33.8,300.1,31.3z M305.3,31.3c0,1.7,0.2,3.3,0.7,4.7c0.5,1.4,1.1,2.6,1.9,3.6c0.8,1,1.9,1.8,3,2.3c1.2,0.6,2.5,0.8,3.9,0.8
		c1.4,0,2.7-0.3,3.9-0.8c1.2-0.6,2.2-1.3,3-2.3c0.8-1,1.5-2.2,1.9-3.6c0.5-1.4,0.7-3,0.7-4.7c0-1.7-0.2-3.3-0.7-4.7
		c-0.5-1.4-1.1-2.6-1.9-3.7c-0.8-1-1.9-1.8-3-2.4c-1.2-0.6-2.5-0.8-3.9-0.8c-1.4,0-2.7,0.3-3.9,0.8c-1.2,0.6-2.2,1.3-3,2.4
		s-1.5,2.3-1.9,3.7C305.6,28,305.3,29.6,305.3,31.3z"/>
	<path style="fill:#2E3236;" d="M340,2.3h5.1V32l0.2-0.1l16.2-15.7h5.8l-12,11.9l13.6,18.1h-5.7l-11.1-14.8l-7.1,6.8v8H340V2.3z"/>
	<path style="fill:#2E3236;" d="M377.4,39c1.7,1.2,3.5,2.2,5.4,3c1.9,0.7,4.3,1.1,7,1.1c2.7,0,4.7-0.5,6.1-1.4c1.3-0.9,2-2,2-3.3
		c0-1.2-0.7-2.2-2.1-3.1c-1.4-0.9-4-1.8-7.6-2.7c-1.6-0.4-3-0.8-4.4-1.4c-1.4-0.5-2.6-1.2-3.6-1.9c-1-0.7-1.9-1.5-2.5-2.4
		c-0.6-0.9-0.9-1.8-0.9-2.9c0-1.2,0.3-2.3,0.8-3.4c0.5-1,1.3-2,2.4-2.7s2.4-1.4,4-1.8c1.6-0.4,3.4-0.6,5.5-0.6
		c2.3,0,4.5,0.4,6.6,1.1c2.1,0.8,4,1.7,5.4,2.7l-2.5,3.3c-1.3-0.9-2.8-1.7-4.4-2.3c-1.6-0.6-3.3-0.9-5.2-0.9c-1.4,0-2.6,0.1-3.5,0.3
		s-1.7,0.5-2.3,0.9c-0.6,0.4-1,0.9-1.2,1.4c-0.2,0.5-0.4,1.1-0.4,1.7c0,1.2,0.8,2.3,2.5,3.1s3.9,1.6,6.6,2.3c4.1,1,7.1,2.2,9,3.5
		c2,1.3,2.9,3.1,2.9,5.4c0,1.2-0.3,2.4-0.9,3.5c-0.6,1.1-1.4,2-2.6,2.8c-1.1,0.8-2.5,1.5-4.2,1.9c-1.7,0.5-3.6,0.7-5.7,0.7
		c-3,0-5.7-0.5-8.2-1.4c-2.5-0.9-4.7-2-6.5-3.3L377.4,39z"/>
	<path style="fill:#2E3236;" d="M437.2,28.9l-23,15.6v-4.9l18.6-12.5v-0.2l-18.6-12.5V9.4l23,15.6V28.9z"/>
</g>
</svg>
